<svg width="16" height="10" viewBox="0 0 16 10" fill="none" xmlns="http://www.w3.org/2000/svg">
<path d="M8.02991 0.00636653C7.87754 -0.0202571 7.71682 0.0332893 7.59888 0.171493L0.149747 8.90943C-0.0489407 9.14156 -0.0499532 9.52088 0.146962 9.75511C0.239093 9.86489 0.358052 9.92352 0.479036 9.9313C0.616978 9.93967 0.756945 9.88224 0.86249 9.7581L8.02536 1.35669L15.1346 9.82271C15.2267 9.9325 15.3459 9.99113 15.4666 9.99891C15.6043 10.0076 15.7446 9.94985 15.8503 9.826C16.0488 9.59357 16.05 9.21426 15.8531 8.98033L8.45994 0.175382C8.34275 0.0359815 8.18254 -0.0193597 8.02991 0.00636653Z" fill="#E2E2E2"/>
</svg>
