<svg width="16" height="18" viewBox="0 0 16 18" fill="none" xmlns="http://www.w3.org/2000/svg">
<path opacity="0.7" d="M8 0C3.58171 0 0 3.90732 0 8.72727C0 13.5472 3.58171 17.4545 8 17.4545C12.4183 17.4545 16 13.5472 16 8.72727C16 3.90732 12.4183 0 8 0ZM11.7785 12.2025C11.7272 12.2682 10.4954 13.8118 8.23493 13.8118C5.50293 13.8118 3.57416 11.5856 3.57416 8.68916C3.57416 5.82806 5.57429 3.64279 8.21165 3.64279C10.3715 3.64279 11.5008 4.95593 11.5478 5.01185C11.6058 5.08071 11.6411 5.16859 11.6483 5.26171C11.6555 5.35483 11.6343 5.44794 11.5878 5.52644L10.8658 6.74597C10.7352 6.96651 10.4538 7.00466 10.2776 6.82673C10.2701 6.8192 9.42187 5.98638 8.28152 5.98638C6.7939 5.98638 5.89713 7.16791 5.89713 8.66375C5.89713 10.0574 6.72016 11.4682 8.29316 11.4682C9.54145 11.4682 10.399 10.4709 10.4075 10.4608C10.573 10.265 10.861 10.2837 11.0045 10.4979L11.7964 11.6793C11.8477 11.756 11.8739 11.8493 11.8707 11.9443C11.8675 12.0392 11.835 12.1301 11.7785 12.2025Z" fill="white"/>
</svg>
