<svg width="23" height="22" viewBox="0 0 23 22" fill="none" xmlns="http://www.w3.org/2000/svg">
<path d="M11.136 5.11758C8.0063 5.11758 5.48185 7.52227 5.48185 10.5035C5.48185 13.4848 8.0063 15.8895 11.136 15.8895C14.2657 15.8895 16.7902 13.4848 16.7902 10.5035C16.7902 7.52227 14.2657 5.11758 11.136 5.11758ZM11.136 14.0051C9.11351 14.0051 7.46007 12.4348 7.46007 10.5035C7.46007 8.57227 9.10859 7.00195 11.136 7.00195C13.1634 7.00195 14.812 8.57227 14.812 10.5035C14.812 12.4348 13.1585 14.0051 11.136 14.0051ZM18.3403 4.89727C18.3403 5.5957 17.7498 6.15352 17.0215 6.15352C16.2882 6.15352 15.7027 5.59102 15.7027 4.89727C15.7027 4.20352 16.2932 3.64102 17.0215 3.64102C17.7498 3.64102 18.3403 4.20352 18.3403 4.89727ZM22.0851 6.17227C22.0015 4.48945 21.5979 2.99883 20.3037 1.7707C19.0145 0.542578 17.4496 0.158203 15.683 0.0738281C13.8622 -0.0246094 8.4049 -0.0246094 6.58415 0.0738281C4.82245 0.153516 3.25759 0.537891 1.96338 1.76602C0.669171 2.99414 0.270574 4.48477 0.181997 6.16758C0.0786572 7.90195 0.0786572 13.1004 0.181997 14.8348C0.265653 16.5176 0.669171 18.0082 1.96338 19.2363C3.25759 20.4645 4.81753 20.8488 6.58415 20.9332C8.4049 21.0316 13.8622 21.0316 15.683 20.9332C17.4496 20.8535 19.0145 20.4691 20.3037 19.2363C21.593 18.0082 21.9965 16.5176 22.0851 14.8348C22.1885 13.1004 22.1885 7.90664 22.0851 6.17227ZM19.7329 16.6957C19.3491 17.6145 18.606 18.3223 17.6366 18.6926C16.1849 19.241 12.7402 19.1145 11.136 19.1145C9.53179 19.1145 6.08221 19.2363 4.63545 18.6926C3.67095 18.327 2.92788 17.6191 2.53913 16.6957C1.96338 15.3129 2.09624 12.0316 2.09624 10.5035C2.09624 8.97539 1.9683 5.68945 2.53913 4.31133C2.92296 3.39258 3.66603 2.68477 4.63545 2.31445C6.08713 1.76602 9.53179 1.89258 11.136 1.89258C12.7402 1.89258 16.1898 1.7707 17.6366 2.31445C18.6011 2.68008 19.3442 3.38789 19.7329 4.31133C20.3087 5.69414 20.1758 8.97539 20.1758 10.5035C20.1758 12.0316 20.3087 15.3176 19.7329 16.6957Z" fill="white"/>
</svg>
