<svg width="128" height="86" viewBox="0 0 128 86" fill="none" xmlns="http://www.w3.org/2000/svg">
<path d="M109.234 70.3364C109.234 71.5026 109.2 72.6398 109.234 73.7752C109.324 76.184 108.714 78.5129 108.47 80.8836C108.321 82.326 108.047 83.7556 107.886 85.198C107.824 85.7557 107.647 85.9882 107.061 85.9864C102.846 85.9682 98.6292 85.961 94.4085 85.9864C93.7217 85.9864 93.5391 85.6612 93.4397 85.0944C93.2156 83.8228 92.9372 82.5512 92.7365 81.2651C92.6606 80.7764 92.4799 80.5947 91.99 80.5984C90.0324 80.6129 88.0749 80.6147 86.1173 80.5856C85.575 80.5856 85.3943 80.9072 85.2135 81.3123C84.6712 82.5603 84.1127 83.7974 83.5994 85.0545C83.33 85.7139 82.9595 86.0191 82.1913 85.9918C80.3566 85.9283 78.5183 85.9555 76.6818 85.9918C76.0221 86.0027 75.8251 85.8919 76.1613 85.2053C78.969 79.489 81.7617 73.7655 84.5393 68.0348C85.8859 65.2681 87.2506 62.5105 88.5611 59.7274C88.8105 59.1988 89.1196 59.0117 89.6601 59.0153C91.2869 59.0281 92.9137 59.0153 94.5405 59.0153C94.9598 59.0153 95.1641 59.1261 95.2635 59.5966C96.2089 64.0891 97.1831 68.5761 98.1556 73.0649C99.0594 77.1922 99.9632 81.3177 100.977 85.4596C101.218 83.7919 101.467 82.1279 101.7 80.4585C102.138 77.3158 102.559 74.1712 102.996 71.0303C103.519 67.2881 104.068 63.5514 104.565 59.8056C104.639 59.2442 104.802 59.0008 105.375 59.0081C107.09 59.0299 108.809 59.0299 110.525 59.0226C111.018 59.0226 111.273 59.2497 111.461 59.6984C112.896 63.1227 114.375 66.527 115.799 69.9585C116.547 71.7751 116.884 73.7189 117.607 75.59C117.638 75.2968 117.652 75.002 117.648 74.7071C117.433 71.9096 117.829 69.1574 118.229 66.4035C118.547 64.2508 118.85 62.0963 119.107 59.9364C119.187 59.2715 119.389 58.9826 120.103 59.0008C121.818 59.0444 123.537 59.0371 125.253 59.0008C125.921 58.9863 126.066 59.2242 125.976 59.8492C125.518 62.9901 125.09 66.1346 124.653 69.2773C123.943 74.3941 123.232 79.5114 122.521 84.6294C122.288 86.2952 122.371 85.9737 120.934 85.9773C119.369 85.9773 117.802 85.9537 116.235 85.9918C115.68 86.0046 115.344 85.8538 115.129 85.3215C113.357 80.9344 111.087 76.7508 109.869 72.1403C109.708 71.5263 109.666 70.8723 109.234 70.3364ZM91.0989 66.8431L90.8928 66.8176C90.801 66.9631 90.7194 67.1148 90.6488 67.2718C89.9921 69.0206 89.3395 70.7712 88.6912 72.5236C87.9574 74.5019 87.9592 74.5019 90.1047 74.4855C91.8201 74.4728 91.8201 74.4728 91.6556 72.698C91.6339 72.4582 91.6376 72.2148 91.6141 71.9713C91.4441 70.2625 91.2724 68.5531 91.0989 66.8431Z" fill="#EA970A"/>
<path d="M9.23329 68.5486C9.90434 67.786 10.5558 67.0652 11.1912 66.328C13.1189 64.0766 15.0484 61.8252 16.9565 59.5556C17.1035 59.3711 17.2918 59.2252 17.5055 59.1304C17.7192 59.0357 17.9522 58.9946 18.1847 59.0109C26.4615 59.0242 34.7383 59.0206 43.0151 59C43.882 59 44.0938 59.2905 43.9656 60.0894C43.7081 61.7005 43.4708 63.3146 43.2537 64.9318C43.1718 65.5655 42.7499 65.4928 42.337 65.4928C39.0441 65.4928 35.7511 65.5164 32.4582 65.4765C31.7462 65.4765 31.4632 65.6417 31.4383 66.3952C31.389 67.1496 31.2813 67.8988 31.1161 68.6358C30.9915 69.2821 31.2051 69.4691 31.8441 69.4619C34.7811 69.431 37.718 69.4764 40.6549 69.431C41.4844 69.4183 41.7229 69.6126 41.5449 70.4805C41.2797 71.8731 41.1124 73.2875 40.9789 74.7001C40.913 75.3991 40.646 75.6079 39.9732 75.597C37.0078 75.5625 34.0406 75.597 31.0734 75.5625C30.3863 75.5625 30.0446 75.6896 30.0464 76.4903C30.0464 77.1767 29.8684 77.8648 29.7384 78.5475C29.6085 79.2302 29.8078 79.4989 30.559 79.4898C33.8217 79.4499 37.0843 79.4898 40.3488 79.459C41.0234 79.459 41.2387 79.6314 41.1319 80.3287C40.8685 82.0299 40.6318 83.7367 40.4378 85.4488C40.3577 86.1479 39.8931 85.9609 39.5211 85.9609C33.4692 85.9681 27.4174 85.9681 21.3655 85.9609C19.0213 85.9609 16.6789 85.9463 14.3347 85.9863C13.6779 85.9972 13.361 85.7539 13.0691 85.1565C11.6968 82.3459 10.0022 79.7204 8.47325 76.9987C8.38603 76.8444 8.29526 76.612 8.09412 76.7082C7.85561 76.819 7.87163 77.1149 7.83959 77.3455C7.53877 79.5243 7.2166 81.7031 6.95851 83.9019C6.72355 85.9699 6.75381 85.979 4.77094 85.979C3.49471 85.979 2.21669 85.9318 0.945803 85.9954C0.157281 86.0353 -0.0954729 85.8265 0.0309042 84.9913C0.447415 82.2133 0.803406 79.4281 1.18076 76.6392C1.80968 71.9984 2.43741 67.3581 3.06395 62.7185C3.20101 61.7017 3.35943 60.6868 3.47513 59.6663C3.5303 59.1761 3.74746 59.0054 4.22627 59.0109C6.00623 59.0327 7.78619 59.0418 9.56615 59.0109C10.2141 59 10.3564 59.2124 10.2568 59.8606C9.85806 62.457 9.51097 65.0625 9.1532 67.668C9.1176 67.9222 9.0197 68.1855 9.23329 68.5486ZM25.552 59.719L25.3188 59.6591C25.2102 59.759 25.0963 59.8515 24.9966 59.9587C21.4011 63.8351 17.8198 67.7225 14.2012 71.579C13.6885 72.1237 13.6779 72.4868 14.0712 73.1168C16.2677 76.5848 18.4036 80.0944 20.593 83.566C21.0024 84.2142 21.3388 84.9477 22.017 85.5977L25.552 59.719Z" fill="#EA970A"/>
<path d="M56.9463 26.1927C56.6411 29.8884 56.3353 33.5834 56.0289 37.2778C55.4795 43.9961 54.9348 50.7143 54.395 57.4326C54.3591 57.8785 54.2155 58.0479 53.7505 58.0426C51.7755 58.0194 49.8005 58.0104 47.8256 58.0426C47.2295 58.0515 47.12 57.8642 47.2439 57.3291C48.5856 51.467 49.919 45.6025 51.2441 39.7357C52.4703 34.3331 53.7128 28.9324 54.9103 23.5227C55.0468 22.9056 55.2478 22.6612 55.8978 22.7308C56.4941 22.8015 57.0968 22.8015 57.6932 22.7308C58.6843 22.6006 59.0452 22.993 59.266 23.9579C61.8035 35.0507 64.3769 46.1364 66.9863 57.215C67.1335 57.8464 67.1012 58.0854 66.3328 58.0622C64.3913 58.0003 62.4475 58.0003 60.5012 58.0622C59.7831 58.0836 59.5299 57.8999 59.4832 57.1704C59.2606 53.7334 58.9895 50.2981 58.7274 46.8629C58.2139 40.1423 57.6968 33.4241 57.1761 26.7082C57.1636 26.5299 57.1348 26.3658 57.1133 26.1945L56.9463 26.1927ZM58.8261 26.3497C58.8746 26.3337 58.9249 26.3176 58.9733 26.2998C58.9746 26.2855 58.9746 26.2712 58.9733 26.257L58.8315 26.3747C59.1008 25.713 58.7076 25.1707 58.564 24.5304C57.8386 25.3224 58.3485 25.8378 58.8243 26.3479L58.8261 26.3497ZM58.081 26.4728L58.0505 26.5067L58.0918 26.4835C57.8009 27.2219 58.0523 27.9389 58.0918 28.7237C59.3234 27.8319 59.3216 27.8319 58.397 26.8812C58.2828 26.7521 58.1772 26.6157 58.081 26.4728ZM59.9788 30.8676L60.047 30.9978L60.0865 30.9264L59.9608 30.8872C60.029 30.0864 59.6789 29.3747 59.5102 28.433C59.187 28.9859 58.3539 29.0893 58.7094 29.7154C58.9899 30.2305 59.4371 30.6364 59.9788 30.8676ZM63.1477 45.1043C63.2069 45.0579 63.3919 45.1043 63.268 44.9259L63.1531 45.1043C63.2787 45.0668 63.3595 44.9973 63.3326 44.8546L61.8316 38.4104C61.0417 39.2345 60.424 39.9497 59.7274 40.5829C59.2768 40.9931 59.3683 41.2071 59.749 41.6049C60.8765 42.7731 62.1476 43.813 63.1531 45.0989L63.1477 45.1043ZM63.7509 46.6988C62.4942 47.9563 61.4169 49.0657 60.3037 50.1341C59.9447 50.4765 60.1009 50.6477 60.3666 50.9064C61.3241 51.841 62.2757 52.7845 63.2213 53.7369C64.0705 54.5949 64.9018 55.4706 65.7349 56.3374L65.9503 56.184L63.7509 46.6988ZM48.2655 56.2322L48.4612 56.3481C50.1991 54.6002 51.9383 52.8535 53.6786 51.1079C53.8995 50.8885 54 50.7369 53.7271 50.4658C52.6373 49.3814 51.5726 48.2738 50.3535 47.0324L48.2655 56.2322ZM65.4674 57.3024L59.8154 51.5948C59.9393 53.2946 60.0667 55.0372 60.1906 56.7798C60.2104 57.0669 60.2553 57.3024 60.6359 57.3006C62.2715 57.2952 63.9036 57.2988 65.471 57.2988L65.4674 57.3024ZM54.8636 42.4414L54.6428 42.313C53.4183 43.5615 52.1992 44.81 50.9676 46.0585C50.7737 46.2547 50.6659 46.4152 50.8993 46.6471C51.9532 47.7173 53.0018 48.8035 54.2334 50.0698L54.8636 42.4414ZM59.3001 42.1043L59.0972 42.1935L59.6897 49.8451C60.925 48.5823 61.9717 47.4943 63.04 46.4277C63.2859 46.1816 63.1818 46.0318 62.9969 45.8445C61.7628 44.5972 60.5306 43.3504 59.3001 42.1043ZM48.6676 57.3006H51.8814C53.6032 57.3006 53.6194 57.3006 53.79 55.5794C53.9103 54.3683 53.9695 53.1537 54.0611 51.9997L48.6676 57.3006ZM50.8221 44.9794L51.0017 45.0972C52.1364 43.9343 53.2735 42.7755 54.413 41.6209C54.5782 41.4533 54.799 41.307 54.5387 41.052L52.2154 38.7725L50.8221 44.9794ZM55.4525 35.3266L55.273 35.1857C54.4351 36.0608 53.5973 36.9354 52.7594 37.8094C52.7238 37.8348 52.6948 37.8683 52.6748 37.9071C52.6548 37.9458 52.6444 37.9888 52.6444 38.0323C52.6444 38.0759 52.6548 38.1188 52.6748 38.1576C52.6948 38.1963 52.7238 38.2298 52.7594 38.2553C53.4417 38.9883 54.1095 39.7321 54.7828 40.4723L55.0468 40.2939L55.4525 35.3266ZM58.95 40.112L59.2229 40.326C59.8848 39.584 60.5473 38.8427 61.2104 38.1019C61.3092 37.9913 61.4259 37.8861 61.2769 37.7362L58.5424 35.0055L58.95 40.112ZM53.5799 32.7225L52.7486 36.5376C53.2747 36.3004 53.5907 35.9598 53.9246 35.6334C55.4597 34.1316 55.4615 34.1334 53.7612 32.7653C53.7379 32.7528 53.6948 32.7546 53.5781 32.7243L53.5799 32.7225ZM60.4348 32.4068C59.8962 32.9758 59.494 33.4377 59.0595 33.8765C58.862 34.0763 58.7974 34.2172 59.0236 34.4526C59.7651 35.2249 60.4833 36.0168 61.2104 36.8016L61.4205 36.6233L60.4348 32.4068ZM55.8816 30.1541L55.6428 29.9972C55.1688 30.5109 54.6949 31.0227 54.2227 31.5382C54.0934 31.6809 53.8636 31.8236 54.1042 32.0376C54.5907 32.471 54.9606 33.0454 55.6123 33.3896L55.8816 30.1541ZM58.1834 30.3325L58.4203 33.3289C60.0721 32.2017 60.0811 32.1357 58.801 30.8854C58.6484 30.7231 58.4742 30.5786 58.1834 30.3325ZM54.1042 30.4181L54.2837 30.5965C54.6733 30.1541 55.0521 29.7047 55.4579 29.2766C55.65 29.0733 55.7542 28.9074 55.4974 28.6987C55.2407 28.49 55.0611 28.1422 54.6446 28.0209L54.1042 30.4181ZM55.5297 24.2504C55.3502 24.9638 55.1311 25.54 55.1293 26.2445C56.1348 25.4133 56.1348 25.4133 55.5387 24.2433L55.5297 24.2504ZM56.0289 28.0816L56.2084 26.4995C55.0557 27.2362 55.0486 27.2772 56.0289 28.0816Z" fill="#F1F0F0"/>
<path d="M57.7162 3.30733C58.1992 3.26452 58.4057 3.48569 58.4093 3.9637C58.4129 4.4417 58.438 4.8555 58.4775 5.29783C58.5098 5.66525 58.5727 6.03089 58.6229 6.39831C59.1185 6.30378 59.6212 6.23422 60.1095 6.10759C60.5386 5.997 60.2729 5.75087 60.1526 5.5725C59.6427 4.81091 59.1975 4.18665 59.8923 3.14324C60.2514 2.60816 59.8115 1.538 59.763 0.719321C59.7504 0.503505 59.4506 0.127165 59.9156 0.0861419C60.2855 0.0522534 60.2586 0.460699 60.2747 0.694351C60.325 1.40779 60.5745 2.10161 60.4183 2.81149C60.2945 3.37154 60.9893 3.56417 60.9354 4.07428C60.9814 4.10828 61.0381 4.12474 61.0952 4.12065C61.2927 4.06001 61.2371 3.88522 61.2209 3.75501C61.1311 3.01839 61.0252 2.28532 60.939 1.5487C60.9211 1.38996 60.7272 1.12063 61.1042 1.10815C61.3394 1.10815 61.5854 1.09745 61.6069 1.45238C61.65 2.21398 61.8457 2.95953 61.9337 3.71577C61.9875 4.18308 61.729 5.18011 62.8009 5.21043C62.9804 5.21043 62.9912 5.40128 63.0181 5.54753C63.1976 6.53743 63.5567 7.5309 63.5316 8.51188C63.5083 9.21641 63.7722 9.93877 63.5513 10.5916C63.4221 10.975 63.704 10.975 63.7848 10.9483C64.4527 10.7574 64.5137 11.2444 64.6035 11.6617C64.8135 12.6177 64.9769 13.5827 65.1942 14.5369C65.3073 15.0327 65.1672 15.4091 64.6771 15.4715C64.1869 15.5339 64.1887 15.0524 64.1762 14.7242C64.1564 14.2069 63.862 14.0571 63.449 13.7664C62.0127 12.7515 60.6589 13.6415 59.2854 13.786C58.5673 13.8627 58.6642 14.4156 58.8527 14.9418C59.1975 15.9014 59.3196 16.8484 58.6337 17.7402C58.6 17.8036 58.5795 17.873 58.5733 17.9444C58.5671 18.0158 58.5755 18.0877 58.5978 18.1558C58.9102 19.226 58.6247 20.2676 58.5673 21.3235C58.5493 21.6624 58.4793 21.8283 58.1202 21.7819C58.061 21.7819 57.9999 21.7819 57.9407 21.7819C57.0825 21.7516 55.9657 22.0227 55.445 21.591C55.0393 21.2575 55.3625 20.0429 55.3625 19.2206C55.383 18.9553 55.383 18.6887 55.3625 18.4234C55.3265 18.1968 55.0967 18.2093 54.928 18.245C54.5384 18.3253 54.4019 18.6124 54.4217 18.9727C54.4504 19.4864 54.5258 20.1624 53.8399 20.1267C53.1541 20.091 53.2618 19.4133 53.3013 18.8782C53.3857 17.7831 53.4467 16.6861 53.5132 15.5892C53.5311 15.286 53.5239 14.9346 53.883 14.8615C54.199 14.7973 54.506 14.8722 54.4342 14.3657C54.3732 13.9394 54.5725 13.4079 54.0626 13.1831C53.5527 12.9584 53.05 12.4608 52.47 13.0565C52.1971 13.3365 52.2564 12.8781 52.1504 12.9049C51.7267 12.9994 52.1505 12.1594 51.6531 12.4447C51.2563 12.6695 50.7285 12.7711 50.5759 13.2955C50.5211 13.4684 50.4974 13.6495 50.5058 13.8306C50.5346 14.3139 50.3532 14.7224 49.8487 14.6457C49.3442 14.569 49.3442 14.0803 49.4232 13.6576C49.6028 12.6962 49.7823 11.7349 49.9816 10.7771C50.0157 10.613 50.1037 10.3454 50.2078 10.3258C51.2707 10.1136 51.0463 9.15398 50.9816 8.6189C50.8236 7.31152 51.2689 6.11115 51.3569 4.85728C51.3677 4.70924 51.4107 4.53266 51.5993 4.54515C51.7573 4.55585 51.9889 4.58082 52.0032 4.7788C52.0176 4.97678 51.9368 5.25324 52.2761 5.15157C52.3342 5.13365 52.388 5.10429 52.4343 5.06526C52.4807 5.02622 52.5187 4.97831 52.546 4.92437C52.5733 4.87043 52.5894 4.81158 52.5933 4.75133C52.5972 4.69108 52.5889 4.63067 52.5688 4.57369C52.0535 3.57487 52.5275 2.61172 52.6424 1.64679C52.6639 1.46843 52.4323 1.05642 53.0015 1.16344C53.3211 1.22408 53.6766 1.10101 53.664 1.65393C53.725 1.2437 53.7771 0.831688 53.8435 0.425026C53.8758 0.246666 53.8094 -0.0280086 54.1505 0.00231267C54.4917 0.0326339 54.4252 0.262719 54.3786 0.460699C54.199 1.233 54.4109 2.07664 53.9602 2.79544C53.7304 3.16286 54.2601 3.39829 54.0626 3.89235C53.9113 4.33024 53.8107 4.78382 53.7627 5.24432C53.6855 5.87928 54.3014 5.7687 54.6353 5.88999C55.1093 6.06835 54.9549 5.62423 54.9836 5.40841C55.0536 4.87333 55.1973 4.33825 55.1326 3.82101C55.0554 3.20566 55.5222 3.47499 55.7072 3.41435C56.0968 3.28771 55.9406 3.69972 55.9442 3.82101C55.9848 4.49988 55.9728 5.18084 55.9083 5.85788C55.84 6.43042 56.0698 6.51068 56.5564 6.49106C57.7845 6.4429 57.7755 6.45896 57.7342 5.25324C57.6983 4.60222 57.7162 3.95478 57.7162 3.30733ZM59.2208 8.81688C58.6714 8.59215 59.0107 8.02318 58.7342 7.57906L58.8204 9.28597L59.2226 8.8258C59.2657 9.12544 59.1849 9.57134 59.7343 9.34126C60.079 9.19679 60.7433 9.47503 60.6589 8.70451C60.6069 8.23364 60.562 7.76455 60.5117 7.29368C60.4955 7.14743 60.4776 7.02436 60.2747 6.99404C60.1289 6.96744 59.9788 6.97481 59.8363 7.01556C59.6938 7.05632 59.5628 7.12935 59.4535 7.22891C59.3443 7.32848 59.2597 7.45186 59.2066 7.58937C59.1534 7.72688 59.1331 7.87476 59.1472 8.02139C59.1687 8.28715 59.1975 8.55112 59.2208 8.81688ZM59.4488 12.1825C59.7917 12.3716 59.0646 13.1243 59.8618 13.1314C61.1186 13.1421 62.1168 12.673 61.9983 12.1843C61.8726 11.6635 62.2766 10.7414 61.3107 10.745C59.9569 10.7503 59.386 11.2586 59.4488 12.1825ZM55.4289 17.619C55.4253 17.3297 55.4427 17.0406 55.481 16.7539C55.6605 15.8621 55.3014 15.0755 55.1075 14.2569C55.068 14.0928 55.3445 13.8199 54.998 13.7664C54.6515 13.7129 54.6551 14.0535 54.664 14.2587C54.7115 15.1017 54.6965 15.947 54.6191 16.7878C54.524 17.6243 54.8328 17.5958 55.4289 17.6172V17.619ZM53.3677 7.8787C53.3336 8.48691 53.7268 9.00416 54.1308 8.80261C54.4773 8.62425 55.0285 8.30498 55.0195 7.76099C55.0195 6.96193 54.2439 7.12424 53.8292 7.06181C53.181 6.96728 53.5401 7.64862 53.3677 7.8787ZM51.8632 8.95957C51.1217 9.44114 50.6387 10.7289 50.9655 11.635C51.0499 11.8615 50.6962 12.1594 51.0894 12.2646C51.4826 12.3698 51.4484 11.8811 51.7106 11.7705C51.935 11.6724 51.9099 11.5922 51.7231 11.4138C51.3102 11.0232 51.2617 10.5559 51.5795 10.0529C51.7717 9.72003 51.8692 9.34147 51.8614 8.95778L51.8632 8.95957ZM54.1559 11.9614C54.4324 11.1106 53.8543 11.0803 53.4126 10.9875C52.8076 10.8609 53.0715 11.3763 52.9979 11.6207C52.7878 12.3217 53.3767 12.4019 53.7986 12.4911C54.3588 12.6017 54.0698 12.0541 54.1559 11.9614ZM58.3123 12.6427C58.5152 12.8835 58.0448 13.4328 58.7432 13.39C59.3429 13.3544 59.2818 12.9138 59.1993 12.5624C59.1041 12.1825 59.3411 11.4816 58.8402 11.478C58.0771 11.4637 58.5798 12.2628 58.3123 12.6356V12.6427ZM54.3624 9.98336C54.3875 9.44828 54.059 9.26991 53.6442 9.2824C53.0392 9.30559 53.2385 9.84602 53.1972 10.1617C53.12 10.761 53.7089 10.6718 54.0015 10.6968C54.4899 10.7128 54.1918 10.1885 54.3534 9.97622L54.3624 9.98336ZM60.8762 10.2491C60.7487 9.97801 60.8151 9.53567 60.3968 9.75327C60.0377 9.94412 59.3357 9.54816 59.3088 10.3401C59.2998 10.6237 59.395 10.8216 59.7199 10.7253C60.1185 10.6076 60.6194 10.6772 60.8762 10.2491ZM51.9835 6.31092C51.4197 6.87097 52.0122 7.69321 51.4646 8.22294C51.3228 8.36028 51.2366 8.63317 51.4736 8.73127C51.6639 8.80974 51.8847 8.61712 51.9458 8.41557C52.1487 7.73423 52.2582 7.04398 51.9835 6.31092ZM53.9207 6.03446C53.5886 5.92031 53.5383 6.1165 53.5617 6.29308C53.6568 7.02079 54.3624 6.69796 54.7466 6.93874C54.8849 7.02436 55.165 6.95836 55.0895 6.71401C54.9064 6.12542 54.2331 6.31092 53.9189 6.03446H53.9207ZM63.3898 11.4602C63.5101 12.0541 63.4257 12.7194 63.853 13.2438C63.6663 12.6605 63.8225 12.0006 63.3898 11.4602ZM60.9049 7.14564C60.9785 7.54339 60.7774 7.96075 61.0108 8.40308C61.0764 7.98152 61.0401 7.55052 60.9049 7.14564ZM53.3211 3.20031C53.7502 2.68664 53.6999 2.23003 53.5006 1.59507C53.3175 2.18544 53.102 2.61172 53.3211 3.20031ZM63.8727 9.33412C63.9015 9.17538 63.8727 9.04696 63.6932 9.01129C63.5819 8.9881 63.4508 8.9774 63.4257 9.13258C63.4005 9.28775 63.3754 9.42687 63.5496 9.50535C63.7237 9.58383 63.8063 9.47681 63.8709 9.33234L63.8727 9.33412ZM61.1527 8.94352C61.1604 8.92163 61.1652 8.89885 61.167 8.87574C61.167 8.87574 61.1419 8.86147 61.1275 8.85433C61.1218 8.87588 61.1188 8.89805 61.1186 8.92033C61.1186 8.92033 61.1401 8.92925 61.1509 8.94173L61.1527 8.94352Z" fill="#F1F0F0"/>
<path d="M85.3658 58.8023C83.7751 61.9718 82.249 65.0164 80.7193 68.061C77.8694 73.7365 75.0224 79.4125 72.1785 85.0891C71.8679 85.7134 71.5357 86.0184 70.7799 85.9809C69.1371 85.9113 67.4889 85.9167 65.8461 85.9809C65.1889 86.0041 64.9807 85.7633 64.8532 85.1783C63.5437 79.1842 62.2217 73.1931 60.8871 67.2049C60.318 64.6294 59.7811 62.0485 59.1743 59.4819C59.0307 58.8737 59.1743 58.7845 59.7363 58.7899C61.95 58.813 64.1638 58.8166 66.3793 58.7809C66.891 58.7809 67.0526 58.9593 67.1316 59.4088C67.8892 63.6109 68.6936 67.806 69.3992 72.0171C69.6218 73.3476 69.5895 74.721 69.8337 76.1194C70.0402 75.4915 70.2592 74.8708 70.4495 74.2323C71.507 70.7204 73.3437 67.5438 74.8214 64.2138C75.5198 62.6424 76.29 61.1014 76.9759 59.5283C77.2093 58.9932 77.4893 58.7774 78.1052 58.7881C80.4733 58.8273 82.8343 58.8023 85.3658 58.8023ZM63.1601 59.5301C62.2929 59.5301 61.4239 59.5461 60.5586 59.5301C60.081 59.5176 59.9571 59.6192 60.072 60.1365C61.8997 68.2935 63.7089 76.4547 65.4995 84.62C65.6001 85.0784 65.7419 85.2675 66.2429 85.2568C67.7384 85.2229 69.234 85.2282 70.7314 85.2568C71.1623 85.2568 71.3454 85.0944 71.5286 84.7217C75.6233 76.5528 79.7312 68.3904 83.8523 60.2346C84.197 59.5515 83.9331 59.5211 83.3622 59.5211C81.7176 59.5408 80.0712 59.555 78.4266 59.5211C77.9095 59.5087 77.7084 59.7209 77.5127 60.149C76.922 61.476 76.2559 62.7726 75.676 64.1014C74.2558 67.3315 72.4999 70.4118 71.3795 73.7721C70.8822 75.2614 70.4028 76.7579 69.927 78.2543C69.8391 78.5343 69.7475 78.7341 69.3884 78.7056C69.0293 78.677 69.0994 78.3899 69.0688 78.1794C69.0207 77.8563 68.9937 77.5304 68.988 77.2038C68.936 71.3732 67.4224 65.7548 66.4834 60.0527C66.4152 59.6371 66.2572 59.5176 65.8532 59.5176C64.9537 59.5479 64.056 59.5318 63.1601 59.5301Z" fill="#F1F0F0"/>
<path d="M52.079 85.9684C49.3553 85.9684 46.6317 85.9327 43.9116 85.9898C43.0983 86.0076 42.9888 85.749 43.0911 85.0409C43.7321 80.6051 44.3372 76.1639 44.962 71.7245C45.5329 67.6686 46.1236 63.6145 46.6748 59.555C46.7412 59.0609 46.8382 58.8273 47.4073 58.8416C49.5008 58.8725 51.5954 58.8725 53.6913 58.8416C54.2299 58.8416 54.2748 59.036 54.2137 59.4676C53.407 65.0491 52.6056 70.6312 51.8097 76.2138C51.7684 76.5081 51.7397 76.8042 51.7002 77.1056C51.4883 78.6574 51.4883 78.6556 53.0126 78.6556C55.826 78.6556 58.6394 78.6841 61.4511 78.636C62.1782 78.6235 62.2734 78.8143 62.1692 79.4743C61.8676 81.4095 61.6198 83.3536 61.3882 85.2995C61.3182 85.8596 61.0561 85.9809 60.5175 85.9809C57.704 85.9559 54.8924 85.9684 52.079 85.9684ZM52.219 85.2389C54.7613 85.2389 57.3055 85.2246 59.8478 85.2496C60.4205 85.2496 60.6808 85.1568 60.7455 84.504C60.8747 83.0575 61.0758 81.611 61.3451 80.1841C61.478 79.4707 61.3038 79.3476 60.627 79.3566C57.546 79.3922 54.4651 79.3673 51.3842 79.3762C50.9174 79.3762 50.6014 79.3904 50.7055 78.7252C51.1741 75.7055 51.5924 72.677 52.0251 69.6502C52.4668 66.5663 52.8995 63.4807 53.3484 60.3969C53.4256 59.8618 53.4291 59.5336 52.693 59.5603C51.14 59.6192 49.5816 59.5942 48.0249 59.5603C47.5779 59.5603 47.4127 59.6816 47.357 60.1329C47.1775 61.6044 46.9351 63.0705 46.7269 64.5402C45.7861 71.2091 44.8578 77.8815 43.8937 84.5468C43.8075 85.1479 43.9691 85.2478 44.5149 85.2442C47.0734 85.2282 49.6462 85.2389 52.2172 85.2389H52.219Z" fill="#F1F0F0"/>
<path d="M92.6066 54.3344C90.1702 55.7006 88.2976 54.5912 88.3443 51.8641C88.3659 50.505 88.6765 49.2208 89.5813 48.1417C90.7232 46.7791 92.4127 46.6596 93.7108 47.8457C93.9207 47.5504 94.2159 47.3254 94.5573 47.2005C94.8988 47.0757 95.2704 47.0568 95.6229 47.1465C95.982 47.2553 95.8779 47.5032 95.8473 47.7172C95.4883 50.1197 95.1776 52.533 94.7396 54.9212C94.3392 57.1097 92.1093 58.2851 89.637 57.725C89.4902 57.701 89.3459 57.6634 89.2061 57.6127C88.8883 57.4753 88.3317 57.4914 88.3246 57.1347C88.3138 56.6905 88.5598 56.2232 88.7662 55.8005C88.8883 55.5544 89.1253 55.7542 89.3156 55.8219C89.8789 56.0248 90.4801 56.1027 91.0769 56.0502C92.1165 55.9664 92.5635 55.4902 92.6066 54.3344ZM90.4826 51.7214C90.4647 52.4456 90.5168 53.1251 91.4522 53.2357C92.3499 53.3409 92.8885 52.8683 93.0483 51.8891C93.1434 51.3058 93.2476 50.7244 93.3427 50.1412C93.4289 49.6061 93.5223 49.0514 92.8526 48.7945C92.1829 48.5377 91.6245 48.7232 91.208 49.2975C90.6801 50.0216 90.5275 50.8564 90.4826 51.7214Z" fill="#F1F0F0"/>
<path d="M121.893 54.2435C121.748 55.2262 121.594 56.102 121.497 56.9831C121.437 57.5182 121.224 57.709 120.653 57.6965C119.27 57.6644 119.242 57.6965 119.427 56.4052C119.837 53.5324 120.267 50.6626 120.716 47.7957C120.755 47.5442 120.705 47.1108 121.157 47.159C121.696 47.2161 122.355 46.8451 122.718 47.4051C122.917 47.7119 122.956 47.6673 123.204 47.5335C125.267 46.4188 126.944 47.2107 127.219 49.4759C127.386 50.8123 127.107 52.1665 126.425 53.3303C125.691 54.5895 123.745 55.6703 121.893 54.2435ZM125.102 50.2785C125.044 49.5651 125.046 48.8124 124.073 48.6965C123.24 48.5984 122.664 49.1263 122.502 50.1233C122.394 50.7922 122.371 51.4789 122.209 52.1335C122.03 52.8576 122.389 53.1198 122.989 53.2375C123.685 53.3731 124.204 53.077 124.561 52.4955C124.973 51.8195 125.059 51.0579 125.102 50.2785Z" fill="#F1F0F0"/>
<path d="M115.728 53.9991C115.453 54.2174 115.164 54.4188 114.864 54.602C113.037 55.5597 111.261 54.5591 111.369 52.5241C111.458 50.8457 111.812 49.1798 112.049 47.5086C112.132 46.9218 112.588 47.1661 112.897 47.1518C114.196 47.1144 114.204 47.1304 114.031 48.3593C113.866 49.533 113.672 50.7012 113.518 51.8766C113.444 52.4384 113.362 53.0502 114.162 53.209C114.963 53.3677 115.739 52.9646 115.873 52.2173C116.118 50.8475 116.374 49.4741 116.5 48.09C116.57 47.3177 116.818 47.0858 117.59 47.1251C118.866 47.1911 118.847 47.1376 118.638 48.4039C118.335 50.2446 118.062 52.0906 117.786 53.9331C117.721 54.3683 117.777 54.7981 117.067 54.7821C115.915 54.7678 115.913 54.816 115.728 53.9991Z" fill="#F1F0F0"/>
<path d="M102.53 51.7054C102.544 48.9355 104.239 47.0359 106.706 47.0288C108.738 47.0288 109.916 48.2113 109.895 50.2393C109.868 52.8291 108.318 54.7179 106.062 54.9141C103.871 55.1103 102.514 53.8761 102.53 51.7054ZM107.762 50.3909C107.729 49.6775 107.742 48.9212 106.823 48.7072C106.078 48.5288 105.41 48.9694 105.027 49.8433C104.743 50.4955 104.614 51.2043 104.652 51.9141C104.681 52.4884 104.765 53.0413 105.483 53.209C106.202 53.3767 106.702 53.1341 107.099 52.5705C107.557 51.9141 107.688 51.1668 107.756 50.3909H107.762Z" fill="#F1F0F0"/>
<path d="M100.017 47.8029C100.555 47.2945 101.108 46.9913 101.812 47.0395C102.171 47.0627 102.288 47.175 102.171 47.5353C101.945 48.2791 102.004 49.1959 100.735 49.0443C100.128 48.9711 99.7312 49.4527 99.6414 50.1144C99.478 51.3166 99.2213 52.5116 99.1297 53.7173C99.0651 54.5841 98.7581 54.9373 97.8729 54.7875C97.521 54.7599 97.1674 54.7599 96.8154 54.7875C97.1745 52.3314 97.5336 49.9468 97.8801 47.5603C97.8801 47.5032 97.8909 47.4283 97.9268 47.3926C98.4026 46.9289 99.004 47.241 99.5319 47.1661C99.979 47.0983 100.017 47.4176 100.017 47.8029Z" fill="#F1F0F0"/>
</svg>
