<svg width="17" height="16" viewBox="0 0 17 16" fill="none" xmlns="http://www.w3.org/2000/svg">
<path d="M16.4179 11.3062L12.9105 9.80614C12.7607 9.74242 12.5942 9.72899 12.436 9.76788C12.2779 9.80677 12.1367 9.89587 12.0337 10.0218L10.4804 11.9156C8.04275 10.7686 6.08097 8.81089 4.93162 6.37827L6.82935 4.82824C6.95576 4.72564 7.04524 4.58473 7.08423 4.42684C7.12321 4.26896 7.10959 4.10269 7.04543 3.95322L5.54228 0.453162C5.47185 0.292037 5.34729 0.160484 5.19008 0.0811864C5.03287 0.00188914 4.85287 -0.0201818 4.6811 0.0187795L1.42427 0.768793C1.25866 0.806955 1.11091 0.900007 1.00512 1.03276C0.899332 1.16552 0.841759 1.33013 0.841797 1.49974C0.841797 9.51551 7.35232 16 15.3723 16C15.5423 16.0001 15.7073 15.9427 15.8404 15.8371C15.9735 15.7315 16.0668 15.5841 16.105 15.4187L16.8566 12.1687C16.8954 11.9964 16.8728 11.8161 16.7927 11.6587C16.7127 11.5012 16.5801 11.3766 16.4179 11.3062Z" fill="white"/>
</svg>
