<svg width="55" height="55" viewBox="0 0 55 55" fill="none" xmlns="http://www.w3.org/2000/svg">
<g clip-path="url(#clip0)">
<rect x="9" y="5" width="50" height="50" fill="#EA970A"/>
<path d="M17.6948 23.2604H12.3446C11.8902 23.2604 11.5225 23.6282 11.5225 24.0825V29.4328C11.5225 29.8865 11.8902 30.2548 12.3446 30.2548H17.6948C18.1491 30.2548 18.5169 29.8865 18.5169 29.4328V24.0825C18.5169 23.6287 18.1491 23.2604 17.6948 23.2604ZM16.8727 28.6107H13.1667V24.9046H16.8727V28.6107Z" fill="black"/>
<path d="M30.173 23.2604H24.8228C24.3685 23.2604 24.0007 23.6282 24.0007 24.0825V29.4328C24.0007 29.8865 24.3685 30.2548 24.8228 30.2548H30.173C30.6268 30.2548 30.9951 29.8865 30.9951 29.4328V24.0825C30.9951 23.6287 30.6268 23.2604 30.173 23.2604ZM29.3509 28.6107H25.6449V24.9046H29.3509V28.6107Z" fill="black"/>
<path d="M42.2668 23.2604H36.9166C36.4628 23.2604 36.0945 23.6282 36.0945 24.0825V29.4328C36.0945 29.8865 36.4628 30.2548 36.9166 30.2548H42.2668C42.7206 30.2548 43.0889 29.8865 43.0889 29.4328V24.0825C43.0889 23.6287 42.7206 23.2604 42.2668 23.2604ZM41.4447 28.6107H37.7387V24.9046H41.4447V28.6107Z" fill="black"/>
<path d="M17.6948 35.4472H12.3446C11.8902 35.4472 11.5225 35.8155 11.5225 36.2693V41.6195C11.5225 42.0733 11.8902 42.4416 12.3446 42.4416H17.6948C18.1491 42.4416 18.5169 42.0733 18.5169 41.6195V36.2693C18.5169 35.8155 18.1491 35.4472 17.6948 35.4472ZM16.8727 40.7974H13.1667V37.0914H16.8727V40.7974Z" fill="black"/>
<path d="M30.173 35.4472H24.8228C24.3685 35.4472 24.0007 35.8155 24.0007 36.2693V41.6195C24.0007 42.0733 24.3685 42.4416 24.8228 42.4416H30.173C30.6268 42.4416 30.9951 42.0733 30.9951 41.6195V36.2693C30.9951 35.8155 30.6268 35.4472 30.173 35.4472ZM29.3509 40.7974H25.6449V37.0914H29.3509V40.7974Z" fill="black"/>
<path d="M42.2668 35.4472H36.9166C36.4628 35.4472 36.0945 35.8155 36.0945 36.2693V41.6195C36.0945 42.0733 36.4628 42.4416 36.9166 42.4416H42.2668C42.7206 42.4416 43.0889 42.0733 43.0889 41.6195V36.2693C43.0889 35.8155 42.7206 35.4472 42.2668 35.4472ZM41.4447 40.7974H37.7387V37.0914H41.4447V40.7974Z" fill="black"/>
<path d="M48.7778 7.34079H43.3481C43.3409 7.34079 43.3349 7.34243 43.3278 7.34298V6.24795C43.3278 4.45687 41.871 3.00011 40.08 3.00011C38.2889 3.00011 36.8321 4.45742 36.8321 6.24795V7.34079H30.7141V6.24795C30.7141 4.45687 29.2573 3.00011 27.4662 3.00011C25.6752 3.00011 24.2184 4.45742 24.2184 6.24795V7.34079H18.0998V6.24795C18.0998 4.45687 16.643 3.00011 14.852 3.00011C13.0609 3.00011 11.6041 4.45742 11.6041 6.24795V7.34134C11.6014 7.34134 11.5986 7.34079 11.5959 7.34079H6.16731C5.71297 7.34079 5.34521 7.70854 5.34521 8.16289V50.7728C5.34521 51.2266 5.71297 51.5949 6.16731 51.5949H48.7778C49.2315 51.5949 49.5998 51.2266 49.5998 50.7728V8.16289C49.5998 7.70854 49.2315 7.34079 48.7778 7.34079ZM38.4763 6.24795C38.4763 5.36337 39.1954 4.64431 40.08 4.64431C40.9645 4.64431 41.6836 5.36337 41.6836 6.24795V10.7843C41.6836 11.6683 40.9645 12.3879 40.08 12.3879C39.1954 12.3879 38.4763 11.6689 38.4763 10.7843V6.24795ZM27.4662 4.64431C28.3503 4.64431 29.0699 5.36337 29.0699 6.24795V10.7843C29.0699 11.6683 28.3508 12.3879 27.4662 12.3879C26.5817 12.3879 25.8626 11.6689 25.8626 10.7843V8.23962C25.8648 8.21386 25.8703 8.18919 25.8703 8.16234C25.8703 8.13548 25.8648 8.11082 25.8626 8.08506V6.24795C25.8626 5.36337 26.5817 4.64431 27.4662 4.64431ZM13.2483 6.24795C13.2483 5.36337 13.9674 4.64431 14.852 4.64431C15.736 4.64431 16.4556 5.36337 16.4556 6.24795V10.7843C16.4556 11.6683 15.7365 12.3879 14.852 12.3879C13.9674 12.3879 13.2483 11.6689 13.2483 10.7843V6.24795V6.24795ZM47.9557 49.9507H6.98941V8.98498H11.5959C11.5986 8.98498 11.6014 8.98444 11.6041 8.98444V10.7848C11.6041 12.5759 13.0614 14.0327 14.852 14.0327C16.6425 14.0327 18.0998 12.5759 18.0998 10.7848V8.98553H24.2184V10.7848C24.2184 12.5759 25.6757 14.0327 27.4662 14.0327C29.2568 14.0327 30.7141 12.5759 30.7141 10.7848V8.98553H36.8321V10.7848C36.8321 12.5759 38.2889 14.0327 40.08 14.0327C41.871 14.0327 43.3278 12.5759 43.3278 10.7848V8.98279C43.3349 8.98279 43.3409 8.98498 43.3481 8.98498H47.9557V49.9507Z" fill="black"/>
</g>
<defs>
<clipPath id="clip0">
<rect width="55" height="55" fill="white"/>
</clipPath>
</defs>
</svg>
