<svg width="23" height="18" viewBox="0 0 23 18" fill="none" xmlns="http://www.w3.org/2000/svg">
<path d="M22.1396 4.07356C22.0431 6.05133 20.5411 8.7668 17.6403 12.2072C14.643 15.8003 12.1074 17.6 10.0334 17.6C8.7449 17.6 7.66313 16.5062 6.77428 14.3186C5.03793 8.44882 4.30067 5.00839 2.86749 5.00839C2.70213 5.00839 2.12334 5.32636 1.13803 5.96866L0.104492 4.73493C2.64701 2.67449 5.07238 0.385105 6.58825 0.257917C8.30392 0.105291 9.35814 1.18639 9.75777 3.50757C11.1703 11.7494 11.7973 12.9958 14.3605 9.26283C15.2838 7.91464 15.7799 6.89713 15.8419 6.19124C16.0762 4.10535 14.078 4.24526 12.7275 4.77945C13.8093 1.50436 15.8832 -0.0854907 18.9356 0.00354091C21.2025 0.0671349 22.2705 1.42805 22.1396 4.07356Z" fill="white"/>
</svg>
