<svg width="66" height="53" viewBox="0 0 66 53" fill="none" xmlns="http://www.w3.org/2000/svg">
<rect x="8" y="2" width="50" height="50" fill="#EA970A"/>
<path d="M9.01276 50.4857H7.22217V52.0376H9.01276V50.4857Z" fill="black"/>
<path d="M45.4415 31.6115H24.8105V33.1635H45.4415V31.6115Z" fill="black"/>
<path d="M23.3532 31.6115H21.7002V33.1635H23.3532V31.6115Z" fill="black"/>
<path d="M35.1975 39.7666H21.7002V41.3186H35.1975V39.7666Z" fill="black"/>
<path d="M45.4415 35.6892H42.7788V37.2412H45.4415V35.6892Z" fill="black"/>
<path d="M40.9165 35.6892H21.7002V37.2412H40.9165V35.6892Z" fill="black"/>
<path d="M55.438 32.3875H53.9927V38.0269H55.438V32.3875Z" fill="black"/>
<path d="M4.74482 13.0906L5.64741 17.6231L7.06078 17.2986L6.4604 14.2835L60.6336 1.84212L64.3654 20.5755L58.2899 21.9709V19.2971H39.4622L51.8818 16.4452L51.5794 14.9276L32.5512 19.2971H10.5142L9.96095 16.5214L58.4237 5.3912L59.6528 11.5618L61.0663 11.2371L59.5349 3.54908L8.24536 15.3284L9.03624 19.2971H0V52.0376H5.29389V50.4857H1.44531V20.8491H56.8446V40.005H47.9005V47.107H49.3458V41.5569H55.9248L48.3054 50.4857H10.8719V52.0376H48.9413L58.2899 41.0826V23.5578L63.7503 22.3037L59.1971 30.4736L60.4372 31.2705L65.9892 21.3083L61.7448 0L4.74482 13.0906Z" fill="black"/>
<path d="M12.8955 34.8931H12.8451V31.6483H15.8248V30.0964H12.8451V26.9609H11.3998V30.0963H11.3302C9.6729 30.0963 8.32429 31.5203 8.32429 33.2704C8.32429 35.0208 9.6729 36.4448 11.3302 36.4448H11.3998V39.9009H8.30029V41.4529H11.3998V44.374H12.8451V41.4529H12.8955C14.6085 41.4529 16.0019 39.9815 16.0019 38.1729C16.0019 36.3643 14.6083 34.8931 12.8955 34.8931ZM11.3301 34.8931C10.4696 34.8931 9.76945 34.1654 9.76945 33.2705C9.76945 32.376 10.4696 31.6483 11.3301 31.6483H11.3996V34.8931H11.3301ZM12.8955 39.9009H12.8451V36.4448H12.8955C13.8114 36.4448 14.5566 37.22 14.5566 38.1729C14.5566 39.1258 13.8112 39.9009 12.8955 39.9009Z" fill="black"/>
</svg>
