<svg width="1348" height="292" viewBox="0 0 1348 292" fill="none" xmlns="http://www.w3.org/2000/svg">
<g opacity="0.4">
<path d="M1169.28 126.082C1169.28 138.435 1168.91 150.481 1169.28 162.508C1170.24 188.023 1163.73 212.692 1161.12 237.804C1159.54 253.082 1156.62 268.226 1154.9 283.505C1154.25 289.412 1152.36 291.875 1146.11 291.856C1101.18 291.663 1056.23 291.587 1011.24 291.856C1003.91 291.856 1001.97 288.411 1000.91 282.408C998.518 268.938 995.55 255.468 993.412 241.845C992.602 236.668 990.675 234.744 985.454 234.783C964.586 234.937 943.718 234.956 922.85 234.648C917.07 234.648 915.143 238.054 913.216 242.345C907.435 255.565 901.481 268.669 896.009 281.984C893.138 288.97 889.188 292.202 880.999 291.914C861.441 291.24 841.845 291.529 822.268 291.914C815.235 292.029 813.135 290.855 816.719 283.582C846.65 223.032 876.419 162.405 906.029 101.701C920.384 72.3951 934.932 43.185 948.901 13.7055C951.56 8.10595 954.855 6.12395 960.617 6.16243C977.958 6.29713 995.3 6.16243 1012.64 6.16243C1017.11 6.16243 1019.29 7.33625 1020.35 12.3201C1030.43 59.9068 1040.81 107.436 1051.18 154.984C1060.81 198.703 1070.45 242.403 1081.26 286.276C1083.82 268.611 1086.48 250.985 1088.96 233.301C1093.63 200.011 1098.12 166.703 1102.78 133.432C1108.35 93.7928 1114.21 54.211 1119.5 14.5329C1120.29 8.587 1122.03 6.00848 1128.14 6.08545C1146.42 6.31636 1164.75 6.31639 1183.03 6.23942C1188.29 6.23942 1191.01 8.64474 1193.01 13.3976C1208.31 49.6698 1224.08 85.7302 1239.26 122.079C1247.24 141.322 1250.82 161.911 1258.53 181.731C1258.87 178.626 1259.01 175.503 1258.97 172.379C1256.68 142.746 1260.9 113.593 1265.16 84.4217C1268.55 61.6194 1271.78 38.7977 1274.52 15.9184C1275.37 8.87564 1277.53 5.8161 1285.14 6.00852C1303.42 6.47034 1321.75 6.39337 1340.03 6.00852C1347.16 5.85458 1348.7 8.37532 1347.74 14.9947C1342.87 48.265 1338.3 81.5738 1333.64 114.863C1326.07 169.063 1318.5 223.269 1310.92 277.482C1308.43 295.127 1309.32 291.721 1294 291.76C1277.31 291.76 1260.61 291.51 1243.9 291.914C1237.99 292.048 1234.4 290.451 1232.11 284.813C1213.23 238.342 1189.03 194.027 1176.04 145.19C1174.32 138.686 1173.88 131.758 1169.28 126.082ZM975.954 89.0784L973.758 88.809C972.778 90.3495 971.909 91.957 971.156 93.6197C964.156 112.144 957.2 130.687 950.289 149.25C942.466 170.205 942.485 170.205 965.357 170.032C983.642 169.897 983.642 169.897 981.889 151.097C981.658 148.557 981.696 145.978 981.446 143.4C979.635 125.299 977.804 107.192 975.954 89.0784Z" fill="#E2E2E2"/>
<path d="M100.097 107.791C107.372 99.7413 114.435 92.1327 121.323 84.3515C142.221 60.5864 163.139 36.8214 183.824 12.8646C185.417 10.9167 187.458 9.37755 189.775 8.37693C192.093 7.37631 194.618 6.9435 197.139 7.11499C286.867 7.25553 376.595 7.21721 466.323 7C475.721 7 478.017 10.0665 476.628 18.4992C473.836 35.5053 471.263 52.5433 468.909 69.6133C468.021 76.302 463.448 75.5355 458.971 75.5355C423.273 75.5355 387.575 75.7846 351.876 75.3629C344.158 75.3629 341.09 77.107 340.82 85.0607C340.286 93.0233 339.118 100.931 337.327 108.711C335.976 115.534 338.292 117.508 345.219 117.431C377.058 117.105 408.897 117.584 440.736 117.105C449.728 116.971 452.314 119.022 450.384 128.183C447.509 142.883 445.695 157.813 444.248 172.723C443.534 180.102 440.64 182.306 433.346 182.191C401.198 181.827 369.031 182.191 336.864 181.827C329.415 181.827 325.711 183.168 325.73 191.62C325.73 198.865 323.8 206.128 322.392 213.335C320.983 220.541 323.144 223.377 331.287 223.282C366.657 222.86 402.028 223.281 437.417 222.956C444.731 222.956 447.065 224.776 445.908 232.136C443.052 250.094 440.485 268.109 438.382 286.182C437.514 293.561 432.477 291.587 428.444 291.587C362.837 291.664 297.229 291.664 231.621 291.587C206.208 291.587 180.814 291.434 155.401 291.855C148.28 291.97 144.846 289.402 141.681 283.097C126.803 253.429 108.433 225.716 91.8577 196.987C90.9122 195.358 89.9281 192.904 87.7476 193.92C85.1619 195.089 85.3356 198.213 84.9882 200.647C81.7272 223.646 78.2345 246.644 75.4365 269.853C72.8894 291.683 73.2175 291.779 51.7213 291.779C37.8858 291.779 24.031 291.28 10.2534 291.951C1.70507 292.373 -1.03501 290.169 0.335029 281.353C4.85038 252.03 8.70966 222.63 12.8005 193.192C19.6185 144.205 26.4237 95.2247 33.2161 46.2508C34.7019 35.5181 36.4193 24.8046 37.6735 14.0337C38.2717 8.85901 40.6259 7.05749 45.8166 7.11499C65.113 7.34497 84.4093 7.4408 103.706 7.11499C110.73 7 112.273 9.24233 111.193 16.0844C106.87 43.4909 103.108 70.9932 99.229 98.4956C98.843 101.179 97.7817 103.958 100.097 107.791ZM277.007 14.5895L274.479 13.957C273.302 15.0111 272.067 15.9886 270.986 17.1193C232.007 58.0374 193.183 99.0706 153.953 139.778C148.396 145.527 148.28 149.361 152.545 156.011C176.357 192.617 199.512 229.664 223.247 266.308C227.685 273.15 231.332 280.893 238.684 287.754L277.007 14.5895Z" fill="#E2E2E2"/>
<path d="M866.248 104.225C882.627 72.3277 898.967 40.43 916 7.22423C888.894 7.22423 863.614 7.48586 838.257 7.07476C831.663 6.96264 828.664 9.22369 826.165 14.8296C818.821 31.311 810.574 47.4561 803.096 63.9188C787.274 98.8063 767.608 132.087 756.285 168.88C754.247 175.57 751.902 182.073 749.691 188.651C747.076 174 747.422 159.612 745.039 145.672C737.484 101.553 728.871 57.6028 720.758 13.5776C719.913 8.86862 718.182 7 712.703 7C688.981 7.37373 665.277 7.33633 641.574 7.09341C635.556 7.03735 634.019 7.97168 635.556 14.3437C642.054 41.2335 647.802 68.2728 653.896 95.2559C668.186 157.992 682.342 220.76 696.363 283.559C697.728 289.688 699.958 292.211 706.994 291.968C724.584 291.295 742.232 291.239 759.822 291.968C767.916 292.36 771.472 289.165 774.798 282.625C805.249 223.152 835.732 163.686 866.248 104.225Z" fill="#E2E2E2"/>
<path d="M471.173 291.991C500.441 291.377 529.746 291.761 559.052 291.761C589.324 291.761 619.576 291.626 649.848 291.895C655.644 291.895 658.464 290.59 659.217 284.567C661.709 263.638 664.375 242.729 667.621 221.915C668.741 214.818 667.717 212.765 659.894 212.899C629.641 213.417 599.369 213.11 569.098 213.11C552.696 213.11 552.696 213.13 554.976 196.44C555.401 193.198 555.71 190.014 556.154 186.849C564.719 126.806 573.341 66.7698 582.022 6.73987C582.678 2.09758 582.195 0.00662114 576.4 0.00662114C553.849 0.339126 531.311 0.339126 508.786 0.00662114C502.662 -0.146843 501.619 2.36613 500.904 7.67981C494.973 51.3403 488.618 94.9432 482.475 138.565C475.752 186.312 469.242 234.077 462.345 281.785C461.244 289.401 462.422 292.183 471.173 291.991Z" fill="#E2E2E2"/>
</g>
</svg>
