<svg width="17" height="9" viewBox="0 0 17 9" fill="none" xmlns="http://www.w3.org/2000/svg">
<path d="M8.15699 8.99447C8.00431 9.01673 7.84325 8.97196 7.72506 8.85642L0.26041 1.5512C0.0613088 1.35713 0.0602943 1.04001 0.25762 0.844185C0.349942 0.7524 0.469149 0.703383 0.590386 0.696881C0.728615 0.689878 0.868874 0.737896 0.974638 0.841684L8.15243 7.86555L15.2765 0.787664C15.3688 0.69588 15.4882 0.646862 15.6092 0.64036C15.7472 0.633107 15.8877 0.681375 15.9937 0.784913C16.1926 0.979236 16.1938 1.29635 15.9965 1.49193L8.58792 8.85317C8.47048 8.96971 8.30993 9.01598 8.15699 8.99447Z" fill="#E2E2E2"/>
</svg>
