<svg width="8" height="16" viewBox="0 0 8 16" fill="none" xmlns="http://www.w3.org/2000/svg">
<path d="M7.9668 7.49017C7.98871 7.63256 7.94709 7.78308 7.83811 7.89393L0.947872 14.8944C0.764829 15.0811 0.464044 15.0835 0.277277 14.9003C0.189738 14.8145 0.142625 14.7035 0.135826 14.5904C0.128465 14.4614 0.17328 14.3303 0.271174 14.2311L6.89603 7.49965L0.145517 0.883603C0.0579783 0.797863 0.0108623 0.686599 0.00406498 0.573717C-0.00353222 0.444979 0.0415191 0.313617 0.139175 0.214192C0.322457 0.0277103 0.62324 0.0250609 0.809769 0.208318L7.83053 7.08864C7.94169 7.1977 7.98641 7.34733 7.9668 7.49017Z" fill="#E2E2E2"/>
</svg>
