<svg width="9" height="15" viewBox="0 0 9 15" fill="none" xmlns="http://www.w3.org/2000/svg">
<path d="M0.162104 7.49012C0.14178 7.63272 0.185092 7.78283 0.295331 7.8926L7.26517 14.8255C7.45034 15.0104 7.75122 15.0099 7.93598 14.8248C8.02258 14.7382 8.06847 14.6267 8.07401 14.5136C8.07993 14.3845 8.03364 14.2539 7.93462 14.1556L1.23322 7.48916L7.91146 0.807627C7.99806 0.721039 8.04394 0.609321 8.04948 0.496378C8.05565 0.367573 8.00912 0.236658 7.91033 0.138192C7.72493 -0.0464921 7.42405 -0.0462073 7.23952 0.13886L0.293926 7.08729C0.183963 7.19743 0.140902 7.34748 0.162104 7.49012Z" fill="#E2E2E2"/>
</svg>
